<?xml version="1.0" encoding="iso-8859-1"?>
<!-- Generator: Adobe Illustrator 15.1.0, SVG Export Plug-In . SVG Version: 6.00 Build 0)  -->
<!DOCTYPE svg PUBLIC "-//W3C//DTD SVG 1.1//EN" "http://www.w3.org/Graphics/SVG/1.1/DTD/svg11.dtd">
<svg version="1.1" xmlns="http://www.w3.org/2000/svg" xmlns:xlink="http://www.w3.org/1999/xlink" x="0px" y="0px"
	 width="183.691px" height="141.731px" viewBox="0 0 183.691 141.731" style="enable-background:new 0 0 183.691 141.731;"
	 xml:space="preserve">
<g id="engrave">
	<g>
		<path d="M24.057,56.896v27.479h-7.582v-4.934h2.986V61.828h-2.918v-4.932H24.057z M26.541,61.828v-4.932h8.689v4.932H26.541z
			 M26.541,72.867v-4.932h7.481v4.932H26.541z M35.23,79.442v4.934h-8.689v-4.934H35.23z"/>
		<path d="M45.843,84.376h-4.931V61.628H38.16v-4.764h7.952l6.308,12.514V80.28l-6.577-12.951V84.376z M54.869,84.376V56.896h4.898
			v27.479H54.869z"/>
		<path d="M68.571,79.475h2.65v4.934h-2.684c-2.716,0-4.831-2.215-4.831-4.934V61.828c0-2.684,2.214-4.896,4.898-4.896h2.617v4.931
			h-2.583L68.571,79.475z M80.951,72.968h-8.555v-4.898h8.555V72.968z M76.086,61.863H73.67v-4.931h2.449
			c2.718,0,4.832,2.212,4.832,4.931v2.816h-4.864V61.863z M76.02,75.014h4.931v4.494c0,2.686-2.214,4.9-4.898,4.9H73.67v-4.934
			h2.349V75.014z"/>
		<path d="M90.656,56.864v27.512h-4.932V61.795h-2.818v-4.967L90.656,56.864z M93.14,73.102v-4.999h4.596v-6.308H93.14v-4.931h4.629
			c2.718,0,4.897,2.215,4.897,4.897v6.777c0,2.281-1.71,4.193-3.892,4.562H93.14z M103.372,84.376h-5.334l-3.557-8.759h5.335
			L103.372,84.376z"/>
		<path d="M117.34,74.913v4.999h-6.038v4.464h-4.933v-9.059l0.134-0.372L117.34,74.913z M112.643,72.563h-5.267l5.871-15.667h4.093
			l0.771,0.773L112.643,72.563z M124.687,75.317v9.059h-4.863v-7.988l-2.986-8.05l2.617-7.111L124.687,75.317z"/>
		<path d="M139.226,83.569l-0.268,0.807h-4.529l-6.342-18.991v-8.452h4.932v7.648L139.226,83.569z M140.668,79.645l-2.583-7.786
			l2.449-7.277v-7.648h4.932v8.452L140.668,79.645z"/>
		<path d="M156.213,56.896v27.479h-7.582v-4.934h2.985V61.828h-2.918v-4.932H156.213z M158.697,61.828v-4.932h8.689v4.932H158.697z
			 M158.697,72.867v-4.932h7.48v4.932H158.697z M167.386,79.442v4.934h-8.689v-4.934H167.386z"/>
	</g>
</g>
<g id="cut">
	<rect style="fill:none;stroke:#000000;stroke-miterlimit:10;" width="183.691" height="141.731"/>
	<g>
		<path d="M23.889,39.195v4.931h-2.616c-2.685,0-4.798-2.213-4.798-4.931V21.548c0-2.686,2.182-4.898,4.898-4.898h2.516v4.934
			h-2.481c-0.034,0.634-0.102,16.839-0.102,17.612H23.889z M28.822,24.399v-2.816h-2.449v-4.934h2.516
			c2.684,0,4.866,2.213,4.866,4.934v2.816H28.822z M26.373,44.126v-4.931h2.382v-2.953h4.933v2.985c0,2.686-2.182,4.898-4.898,4.898
			H26.373z"/>
		<path d="M43.962,39.159v4.934h-2.583c-2.718,0-4.898-2.213-4.898-4.897V16.584h4.931v22.575H43.962z M53.792,16.584v22.611
			c0,2.685-2.214,4.897-4.898,4.897h-2.483v-4.934h2.449V16.584H53.792z"/>
		<path d="M71.955,16.584v4.896H56.287v-4.896H71.955z M61.655,23.963h4.899v20.13h-4.933L61.655,23.963z"/>
	</g>
</g>
<g id="mark">
	<g>
		<path d="M24.157,107.612v17.043h-4.931v-22.714h-2.751v-4.765h7.85l9.461,18.488l-2.751,5.502L24.157,107.612z M35.162,112.912
			l-2.751-5.365l5.2-10.37h5.2v27.479h-4.933v-17.043L35.162,112.912z"/>
		<path d="M57.556,115.195v4.999h-6.039v4.461h-4.932v-9.059l0.135-0.368L57.556,115.195z M52.858,112.846h-5.267l5.872-15.669
			h4.092l0.771,0.773L52.858,112.846z M64.903,115.597v9.059h-4.864v-7.984l-2.985-8.054l2.617-7.11L64.903,115.597z"/>
		<path d="M74.778,97.144v27.512h-4.932v-22.578h-2.818v-4.966L74.778,97.144z M77.261,113.382v-4.999h4.596v-6.306h-4.596v-4.934
			h4.629c2.718,0,4.898,2.216,4.898,4.901v6.774c0,2.284-1.71,4.196-3.891,4.562H77.261z M87.493,124.655h-5.334l-3.557-8.755h5.335
			L87.493,124.655z"/>
		<path d="M89.385,97.111h7.548v27.544h-4.931v-22.747h-2.617V97.111z M111.494,124.691h-5.166l-3.993-11.676h-2.919v-4.666h6.543
			L111.494,124.691z M106.193,105.902h-5.367l3.59-8.759h5.301L106.193,105.902z"/>
	</g>
</g>
</svg>
